<?xml version="1.0" encoding="UTF-8"?>
<svg xmlns="http://www.w3.org/2000/svg" xmlns:xlink="http://www.w3.org/1999/xlink" width="2552" height="2552" viewBox="0 0 2552 2552">
<!-- <path fill-rule="nonzero" fill="rgb(16.088867%, 19.604492%, 25.488281%)" fill-opacity="1" d="M 0.410156 2551.589844 L 2551.589844 2551.589844 L 2551.589844 0.410156 L 0.410156 0.410156 L 0.410156 2551.589844 "/> -->
<path fill-rule="evenodd" fill="rgb(23.925781%, 35.276794%, 50.193787%)" fill-opacity="1" d="M 1194.988281 636.511719 L 1198.730469 616.640625 L 1172.929688 601.21875 L 1163.148438 566.53125 L 1145.359375 546.078125 L 1124.898438 550.820312 L 1125.789062 572.171875 L 1111.699219 580.050781 L 1194.988281 636.511719 "/>
<path fill-rule="evenodd" fill="rgb(93.359375%, 42.358398%, 30.200195%)" fill-opacity="1" d="M 1190.980469 1892.335938 L 1196.390625 1903.34375 L 1262.800781 1962.636719 L 1328.019531 1995.839844 L 1411.039062 2005.921875 L 1442.460938 1982.203125 L 1392.058594 1967.378906 L 1387.78125 1940.671875 L 1190.980469 1892.335938 "/>
<path fill-rule="evenodd" fill="rgb(87.889099%, 98.4375%, 98.826599%)" fill-opacity="1" d="M 1154.609375 1808.460938 L 1156.359375 1821.8125 L 1176.480469 1862.78125 L 1383.441406 1913.617188 L 1379.609375 1889.703125 L 1362.410156 1870.730469 L 1278.808594 1871.914062 L 1258.648438 1832.1875 L 1233.738281 1832.1875 L 1227.21875 1784.15625 L 1237.890625 1753.324219 L 1236.578125 1744.488281 L 1154.609375 1808.460938 "/>
<path fill-rule="evenodd" fill="rgb(59.56%, 75.75%, 85.1%)" fill-opacity="1" d="M 1172.089844 1496.898438 L 1178.441406 1517.199219 L 1175.480469 1601.539062 L 1174.738281 1620.515625 L 1177.558594 1639.488281 L 1162.441406 1601.835938 L 1148.5 1585.085938 L 1137.980469 1621.699219 L 1148.359375 1658.464844 L 1124.488281 1697.449219 L 1135.761719 1714.347656 L 1143.171875 1702.488281 L 1165.851562 1705.601562 L 1163.179688 1731.097656 L 1145.390625 1738.507812 L 1150.789062 1779.46875 L 1237.289062 1711.960938 L 1250.640625 1681.875 L 1241.738281 1646.59375 L 1243.21875 1613.683594 L 1245.890625 1595.003906 L 1226.621094 1582.847656 L 1217.128906 1549.640625 L 1211.96875 1540.550781 Z M 1128.378906 1449.070312 L 1127.148438 1460.128906 L 1134.261719 1499.859375 L 1131 1560.042969 L 1134.859375 1569.085938 L 1153.089844 1570.269531 L 1160.199219 1550.261719 L 1156.199219 1515.421875 L 1162.878906 1496.601562 L 1170.820312 1495.519531 L 1128.378906 1449.070312 "/>
<path fill-rule="evenodd" fill="rgb(23.925781%, 35.276794%, 50.193787%)" fill-opacity="1" d="M 1111.078125 1353.488281 L 1121.21875 1388.980469 L 1127.828125 1411.140625 L 1212.769531 1504.089844 L 1212.980469 1503.691406 L 1201.410156 1414.738281 L 1202.300781 1388.359375 L 1216.238281 1375.308594 L 1197.261719 1327.578125 L 1197.261719 1294.671875 L 1214.160156 1273.609375 L 1210.308594 1235.960938 L 1224.539062 1198.308594 L 1221.230469 1172.660156 L 1111.078125 1353.488281 "/>
<path fill-rule="evenodd" fill="rgb(93.359375%, 42.358398%, 30.200195%)" fill-opacity="1" d="M 1124.78125 959.808594 L 1123.589844 989.921875 L 1130.699219 1046.839844 L 1141.96875 1195.078125 L 1126.628906 1279.449219 L 1209.761719 1142.980469 L 1183.910156 1095.140625 L 1201.410156 1045.039062 L 1196.660156 997.011719 L 1200.660156 988.898438 L 1124.78125 959.808594 "/>
<path fill-rule="evenodd" fill="rgb(87.889099%, 98.4375%, 98.826599%)" fill-opacity="1" d="M 1126.628906 912.898438 L 1125.828125 933.140625 L 1211.878906 966.128906 L 1236.980469 915.179688 L 1226.011719 819.128906 L 1266.628906 791.261719 L 1269.398438 768.511719 L 1126.628906 912.898438 "/>
<path fill-rule="evenodd" fill="rgb(59.568787%, 75.78125%, 85.15625%)" fill-opacity="1" d="M 1109.539062 609.011719 L 1134.261719 719.53125 L 1128.101562 875.53125 L 1254.808594 747.378906 L 1237.871094 747.378906 L 1204.960938 674.449219 L 1204.511719 673.398438 L 1109.539062 609.011719 "/>
<path fill-rule="evenodd" fill="rgb(65.818787%, 79.6875%, 87.5%)" fill-opacity="1" d="M 1125.269531 632.128906 L 1144.609375 718.601562 L 1139.449219 849.390625 L 1230.871094 756.929688 L 1196.28125 680.269531 L 1125.269531 632.128906 "/>
<path fill-rule="evenodd" fill="rgb(89.84375%, 98.826599%, 99.21875%)" fill-opacity="1" d="M 1136.769531 917.300781 L 1136.421875 926.160156 L 1206.789062 953.140625 L 1226.398438 913.339844 L 1217.519531 835.628906 L 1136.769531 917.300781 "/>
<path fill-rule="evenodd" fill="rgb(94.53125%, 50.976562%, 40.771484%)" fill-opacity="1" d="M 1134.511719 974.578125 L 1133.921875 989.480469 L 1140.960938 1045.808594 L 1152.351562 1195.621094 L 1146.699219 1226.691406 L 1197.878906 1142.671875 L 1172.679688 1096.039062 L 1190.929688 1043.789062 L 1186.121094 995.089844 L 1186.421875 994.480469 L 1134.511719 974.578125 "/>
<path fill-rule="evenodd" fill="rgb(35.693359%, 45.092773%, 58.006287%)" fill-opacity="1" d="M 1122.230469 1355 L 1131.101562 1386.03125 L 1137.03125 1405.929688 L 1198.640625 1473.351562 L 1191.078125 1415.238281 L 1192.148438 1383.75 L 1204.058594 1372.589844 L 1186.960938 1329.550781 L 1186.960938 1291.039062 L 1203.480469 1270.460938 L 1199.808594 1234.589844 L 1206.730469 1216.28125 L 1122.230469 1355 "/>
<path fill-rule="evenodd" fill="rgb(65.818787%, 79.6875%, 87.5%)" fill-opacity="1" d="M 1188.308594 1529.929688 L 1185.78125 1601.941406 L 1185.078125 1619.957031 L 1189.101562 1647.042969 L 1171.410156 1651.835938 L 1153.480469 1607.183594 L 1153.03125 1606.648438 L 1148.699219 1621.726562 L 1159.5 1660.003906 L 1140.121094 1691.664062 L 1177.140625 1696.746094 L 1172.800781 1738.257812 L 1156.640625 1744.988281 L 1158.648438 1760.253906 L 1228.921875 1705.421875 L 1239.769531 1680.945312 L 1231.378906 1647.644531 L 1232.949219 1612.71875 L 1234.738281 1600.15625 L 1217.789062 1589.464844 L 1207.558594 1553.660156 L 1203.578125 1546.648438 Z M 1140.808594 1477.960938 L 1144.621094 1499.21875 L 1141.421875 1558.207031 L 1141.851562 1559.210938 L 1145.988281 1559.480469 L 1149.691406 1549.058594 L 1145.691406 1514.230469 L 1153.589844 1491.941406 L 1140.808594 1477.960938 "/>
<path fill-rule="evenodd" fill="rgb(89.84375%, 98.826599%, 99.21875%)" fill-opacity="1" d="M 1165.589844 1812.957031 L 1166.359375 1818.789062 L 1183.609375 1853.921875 L 1268.730469 1874.828125 L 1252.320312 1842.496094 L 1224.738281 1842.496094 L 1216.671875 1783.109375 L 1221.421875 1769.394531 Z M 1297.75 1881.957031 L 1370.800781 1899.898438 L 1369.921875 1894.359375 L 1357.898438 1881.101562 L 1297.75 1881.957031 "/>
<path fill-rule="evenodd" fill="rgb(94.53125%, 50.976562%, 40.771484%)" fill-opacity="1" d="M 1219.179688 1909.875 L 1268.671875 1954.058594 L 1331.078125 1985.828125 L 1408.148438 1995.1875 L 1419.898438 1986.3125 L 1382.910156 1975.433594 L 1378.679688 1949.050781 L 1219.179688 1909.875 "/>
<path fill-rule="evenodd" fill="rgb(35.693359%, 45.092773%, 58.006287%)" fill-opacity="1" d="M 1162.441406 601.988281 L 1153.851562 571.558594 L 1141.648438 557.519531 L 1135.558594 558.929688 L 1136.359375 578.070312 L 1131.320312 580.890625 L 1162.441406 601.988281 "/>
</svg>
