<?xml version="1.0" encoding="UTF-8"?>
<svg xmlns="http://www.w3.org/2000/svg" xmlns:xlink="http://www.w3.org/1999/xlink" width="2112" height="2112" viewBox="0 0 2112 2112">
<!-- <rect x="-211.2" y="-211.2" width="2534.4" height="2534.4" fill="rgb(100%, 100%, 100%)" fill-opacity="1"/> -->
<!-- <rect x="-211.2" y="-211.2" width="2534.4" height="2534.4" fill="rgb(100%, 100%, 100%)" fill-opacity="1"/> -->
<path fill-rule="evenodd" fill="rgb(0%, 0%, 0%)" fill-opacity="1" d="M 1298.339844 786.410156 L 1815.421875 860.628906 C 1821.859375 861.558594 1826.898438 865.75 1828.960938 871.929688 C 1831.03125 878.101562 1829.539062 884.480469 1824.960938 889.101562 L 1447.621094 1269.214844 L 1540.429688 1810.144531 C 1541.550781 1816.6875 1538.96875 1822.898438 1533.539062 1826.722656 C 1528.109375 1830.546875 1521.398438 1830.878906 1515.621094 1827.617188 L 1056 1568.210938 L 596.386719 1827.617188 C 590.601562 1830.878906 583.886719 1830.546875 578.457031 1826.722656 C 573.027344 1822.898438 570.445312 1816.6875 571.570312 1810.144531 L 664.382812 1269.214844 L 287.042969 889.101562 C 282.457031 884.480469 280.96875 878.101562 283.035156 871.929688 C 285.105469 865.75 290.136719 861.558594 296.578125 860.628906 L 813.65625 786.410156 L 1040.730469 291.941406 C 1043.539062 285.839844 1049.28125 282.148438 1056 282.148438 C 1062.71875 282.148438 1068.460938 285.839844 1071.269531 291.941406 L 1298.339844 786.410156 "/>
<path fill-rule="evenodd" fill="rgb(100%, 100%, 100%)" fill-opacity="1" d="M 1056 298.949219 L 1286.898438 801.738281 L 1813.03125 877.261719 L 1429.601562 1263.523438 L 1523.871094 1812.984375 L 1056 1548.917969 L 588.128906 1812.984375 L 682.402344 1263.523438 L 298.964844 877.261719 L 825.105469 801.738281 L 1056 298.949219 "/>
</svg>
